<svg xmlns="http://www.w3.org/2000/svg" viewBox="0 0 64 64"><path d="M26,46a1,1,0,0,1,1-1h2a1,1,0,0,1,0,2H27A1,1,0,0,1,26,46ZM37,59H19a1,1,0,0,0,0,2H37a1,1,0,0,0,0-2Zm6,0H41a1,1,0,0,0,0,2h2a1,1,0,0,0,0-2ZM29,39a1,1,0,0,1-1,1H13a1,1,0,0,1-.34-.07l-.1,0-.09,0-.15-.12,0,0a1.07,1.07,0,0,1-.19-.28l0-.07A1,1,0,0,1,12,39V26a1,1,0,0,1,1.45-.89l8,4A1,1,0,0,1,22,30v4h3a1,1,0,0,1,0,2H21.24l-4,2H28A1,1,0,0,1,29,39Zm-9-8.38-2-1v5.76l2-1Zm-6,6.76,2-1V28.62l-2-1ZM56,11.3v0l-1,3A1,1,0,0,1,54,15a1.25,1.25,0,0,1-.32-.05,1,1,0,0,1-.63-1.27l.32-.95L51,13.68V27h0a1,1,0,0,1-.08.38.75.75,0,0,1-.09.15,1,1,0,0,1-.12.17.87.87,0,0,1-.32.22h0l-2.4,1A.24.24,0,0,1,48,29V47a3,3,0,0,1-3,3H33v5h2a1,1,0,0,1,0,2H21a1,1,0,0,1,0-2h2V50H11a3,3,0,0,1-3-3V43H8V24a3,3,0,0,1,3-3H25V13.72l-3.42-1.14.37,1.1a1,1,0,0,1-1.9.64l-1-3A.86.86,0,0,1,19,11a.31.31,0,0,1,0-.1.9.9,0,0,1,.07-.27l0-.06a1,1,0,0,1,.17-.25l0,0,.07,0a.89.89,0,0,1,.25-.14l0,0,3-1a1,1,0,0,1,.64,1.9l-.16.05L26,12l11.68-3.9a1,1,0,0,1,.64,0L50,11.94l2.12-.85L51.68,11a1,1,0,0,1,.64-1.9l3,1a1,1,0,0,1,.31.18.27.27,0,0,1,.07.08.9.9,0,0,1,.15.19l.06.1a1.11,1.11,0,0,1,.07.26s0,.05,0,.08a0,0,0,0,1,0,0A1.26,1.26,0,0,1,56,11.3Zm-7,15V14.39L39,17.72V30.5Zm-22,0L37,30.5V17.72L27,14.39ZM29.16,13,38,16,46.84,13,38,10.05ZM31,50H25v5h6Zm15-6H10v3a1,1,0,0,0,1,1H45a1,1,0,0,0,1-1Zm0-14.25-7,2.92v2.92l.29-.3a1,1,0,0,1,1.42,1.42l-2,2a1,1,0,0,1-1.42,0l-2-2a1,1,0,0,1,1.42-1.42l.29.3V32.67L25.62,27.92h0a.87.87,0,0,1-.32-.22.78.78,0,0,1-.1-.15.5.5,0,0,1-.11-.17A1,1,0,0,1,25,27h0V23H11a1,1,0,0,0-1,1V42H46Z" data-name="16"/></svg>